{"title":"The.Adjustment.Bureau.2011.720p.x264.Feel-Free","uid":6463546,"size":2710606588,"categoryP":"video","categoryS":"hd___movies","magnet":"?xt=urn:btih:b1798fd8c2d9bd61780a24506bc421ede9b99d8f&amp;dn=The.Adjustment.Bureau.2011.720p.x264.Feel-Free&amp;tr=udp%3A%2F%2Ftracker.openbittorrent.com%3A80&amp;tr=udp%3A%2F%2Fopen.demonii.com%3A1337&amp;tr=udp%3A%2F%2Ftracker.coppersurfer.tk%3A6969&amp;tr=udp%3A%2F%2Fexodus.desync.com%3A6969","seeders":0,"leechers":1,"uploader":"hiest","files":-1,"time":1307875780,"description":" Full Credits To Feel Free :)\n ######## ######## ######## ##          ######## ########  ######## ######## \n ##       ##       ##       ##          ##       ##     ## ##       ##       \n ##       ##       ##       ##          ##       ##     ## ##       ##       \n ######   ######   ######   ##          ######   ########  ######   ######   \n ##       ##       ##       ##          ##       ##   ##   ##       ##       \n ##       ##       ##       ##          ##       ##    ##  ##       ##       \n ##       ######## ######## ########    ##       ##     ## ######## ######## \n\n\n Genre:Romance | Thriller\n Language:English\n &lt;a href=&quot; http://www.imdb.com/title/tt1385826&quot; rel=&quot;nofollow&quot; target=&quot;_NEW&quot;&gt; http://www.imdb.com/title/tt1385826&lt;/a&gt;\n Source:720p.BluRay.x264-SiNNERS Thanks!\n\n Format : MPEG-4\n Format profile : Base Media\n Codec ID : isom\n File size : 2.52 GiB\n Duration : 1h 45mn\n Overall bit rate : 3 409 Kbps\n\n Video\n ID : 1\n Format : AVC\n Format/Info : Advanced Video Codec\n Format profile : &lt;a class=&quot;__cf_email__&quot; href=&quot;/cdn-cgi/l/email-protection&quot; data-cfemail=&quot;044c6d636c4448302a35&quot;&gt;[email&amp;#160;protected]&lt;/a&gt;&lt;script cf-hash='f9e31' type=&quot;text/javascript&quot;&gt;\n/* &lt;![CDATA[ */!function(){try{var t=&quot;currentScript&quot;in document?document.currentScript:function(){for(var t=document.getElementsByTagName(&quot;script&quot;),e=t.length;e--;)if(t[e].getAttribute(&quot;cf-hash&quot;))return t[e]}();if(t&amp;&amp;t.previousSibling){var e,r,n,i,c=t.previousSibling,a=c.getAttribute(&quot;data-cfemail&quot;);if(a){for(e=&quot;&quot;,r=parseInt(a.substr(0,2),16),n=2;a.length-n;n+=2)i=parseInt(a.substr(n,2),16)^r,e+=String.fromCharCode(i);e=document.createTextNode(e),c.parentNode.replaceChild(e,c)}}}catch(u){}}();/* ]]&gt; */&lt;/script&gt;\n Format settings, CABAC : Yes\n Format settings, ReFrames : 3 frames\n Codec ID : avc1\n Codec ID/Info : Advanced Video Coding\n Duration : 1h 45mn\n Bit rate mode : Variable\n Bit rate : 3 000 Kbps\n Maximum bit rate : 12.9 Mbps\n Width : 1 280 pixels\n Height : 720 pixels\n Display aspect ratio : 16:9\n Frame rate mode : Constant\n Frame rate : 23.976 fps\n Color space : YUV\n Chroma subsampling : 4:2:0\n Bit depth : 8 bits\n Scan type : Progressive\n Bits/(Pixel*Frame) : 0.136\n Stream size : 2.19 GiB (87%)\n Writing library : x264\n\n Audio\n ID : 2\n Format : AAC\n Format/Info : Advanced Audio Codec\n Format version : Version 4\n Format profile : LC\n Format settings, SBR : No\n Codec ID : 40\n Duration : 1h 45mn\n Bit rate mode : Variable\n Bit rate : 442 Kbps\n Maximum bit rate : 552 Kbps\n Channel(s) : 6 channels\n Channel positions : Front: L C R, Side: L R, LFE\n Sampling rate : 48.0 KHz\n Stream size : 335 MiB (13%)\n\n\n Plot:\n The affair between a politician and a ballerina is affected by mysterious \n forces keeping the lovers apart.\n\n\n\n\n\n\n\n ==================================\n &lt;a href=&quot; http://thepiratebay.se/user/hiest&quot; rel=&quot;nofollow&quot; target=&quot;_NEW&quot;&gt; http://thepiratebay.se/user/hiest&lt;/a&gt;\n ==================================\n\n\n\n\n\n\n\n Screen Shots:\n\n &lt;a href=&quot; http://leetleech.org/images/54518219282919773955.png&quot; rel=&quot;nofollow&quot; target=&quot;_NEW&quot;&gt; http://leetleech.org/images/54518219282919773955.png&lt;/a&gt;\n\n &lt;a href=&quot; http://leetleech.org/images/02714544175811647828.png&quot; rel=&quot;nofollow&quot; target=&quot;_NEW&quot;&gt; http://leetleech.org/images/02714544175811647828.png&lt;/a&gt;\n\n &lt;a href=&quot; http://leetleech.org/images/39958726027592722173.png&quot; rel=&quot;nofollow&quot; target=&quot;_NEW&quot;&gt; http://leetleech.org/images/39958726027592722173.png&lt;/a&gt;\n\n &lt;a href=&quot; http://leetleech.org/images/37719800934130502111.png&quot; rel=&quot;nofollow&quot; target=&quot;_NEW&quot;&gt; http://leetleech.org/images/37719800934130502111.png&lt;/a&gt;\n\n\n Full Credits To Feel Free :)\n ######## ######## ######## ##          ######## ########  ######## ######## \n ##       ##       ##       ##          ##       ##     ## ##       ##       \n ##       ##       ##       ##          ##       ##     ## ##       ##       \n ######   ######   ######   ##          ######   ########  ######   ######   \n ##       ##       ##       ##          ##       ##   ##   ##       ##       \n ##       ##       ##       ##          ##       ##    ##  ##       ##       \n ##       ######## ######## ########    ##       ##     ## ######## ######## ","torrent":{"xt":"urn:btih:b1798fd8c2d9bd61780a24506bc421ede9b99d8f","amp;dn":"The.Adjustment.Bureau.2011.720p.x264.Feel-Free","amp;tr":["udp%3A%2F%2Ftracker.openbittorrent.com%3A80","udp%3A%2F%2Fopen.demonii.com%3A1337","udp%3A%2F%2Ftracker.coppersurfer.tk%3A6969","udp%3A%2F%2Fexodus.desync.com%3A6969"],"infoHash":"b1798fd8c2d9bd61780a24506bc421ede9b99d8f","infoHashBuffer":{"type":"Buffer","data":[177,121,143,216,194,217,189,97,120,10,36,80,107,196,33,237,233,185,157,143]},"announce":[],"urlList":[]}}